<?xml version="1.0" encoding="UTF-8"?>
<svg width="28px" height="62px" viewBox="0 0 28 62" version="1.1" xmlns="http://www.w3.org/2000/svg" xmlns:xlink="http://www.w3.org/1999/xlink">
    <!-- Generator: Sketch 49.2 (51160) - http://www.bohemiancoding.com/sketch -->
    <title>Shape</title>
    <desc>Created with Sketch.</desc>
    <defs></defs>
    <g id="Page-1" stroke="none" stroke-width="1" fill="none" fill-rule="evenodd">
        <g id="noun_992934_cc" transform="translate(-36.000000, 0.000000)" fill="#000000" fill-rule="nonzero">
            <path d="M63.564,40.937 C63.564,34.861 57.906,29.89 50.796,29.534 L50.796,12.671 C54.436,12.887 57.689,14.564 59.406,17.188 C59.859,17.882 60.792,18.076 61.482,17.622 C62.175,17.169 62.37,16.239 61.916,15.546 C59.655,12.091 55.441,9.9 50.796,9.674 L50.796,1.707 C50.796,0.879 50.124,0.207 49.296,0.207 C48.468,0.207 47.796,0.879 47.796,1.707 L47.796,9.795 C41.362,10.691 36.435,15.398 36.435,21.066 C36.435,26.734 41.363,31.438 47.796,32.334 L47.796,49.173 C44.741,48.656 42.087,47.095 40.597,44.813 C40.143,44.12 39.214,43.925 38.521,44.377 C37.828,44.83 37.632,45.76 38.085,46.453 C40.113,49.558 43.718,51.648 47.796,52.209 L47.796,60.295 C47.796,61.123 48.468,61.795 49.296,61.795 C50.124,61.795 50.796,61.123 50.796,60.295 L50.796,52.34 C57.906,51.983 63.564,47.013 63.564,40.937 Z M39.436,21.065 C39.436,17.019 43.026,13.632 47.797,12.817 L47.797,29.31 C43.025,28.494 39.436,25.109 39.436,21.065 Z M50.797,49.341 L50.797,32.532 C56.252,32.864 60.565,36.502 60.565,40.936 C60.565,45.37 56.252,49.009 50.797,49.341 Z" id="Shape"></path>
        </g>
    </g>
</svg>