<?xml version="1.0" encoding="UTF-8"?>
<svg width="48px" height="44px" viewBox="0 0 48 44" version="1.1" xmlns="http://www.w3.org/2000/svg" xmlns:xlink="http://www.w3.org/1999/xlink">
    <!-- Generator: Sketch 50.2 (55047) - http://www.bohemiancoding.com/sketch -->
    <title>noun_1112708_cc</title>
    <desc>Created with Sketch.</desc>
    <defs></defs>
    <g id="Page-1" stroke="none" stroke-width="1" fill="none" fill-rule="evenodd">
        <g id="noun_1112708_cc" transform="translate(-1.000000, -1.000000)" fill="#FFEC00" fill-rule="nonzero">
            <path d="M24.8125,1 C24.5376545,1.05721647 24.2995128,1.22731769 24.15625,1.46875 L16.375,14.125 L1.8125,17.03125 C1.44753843,17.0978181 1.14941138,17.3609402 1.03801048,17.7148019 C0.926609571,18.0686636 1.02024064,18.455117 1.28125,18.71875 L11.9375,29.375 L10,43.875 C9.95640253,44.2338627 10.1098611,44.5883201 10.4013775,44.8020988 C10.6928939,45.0158776 11.0770866,45.0556976 11.40625,44.90625 L25,39.09375 L38.59375,44.90625 C38.9229134,45.0556976 39.3071061,45.0158776 39.5986225,44.8020988 C39.8901389,44.5883201 40.0435975,44.2338627 40,43.875 L38.0625,29.375 L48.71875,18.71875 C48.9797594,18.455117 49.0733904,18.0686636 48.9619895,17.7148019 C48.8505886,17.3609402 48.5524616,17.0978181 48.1875,17.03125 L33.625,14.125 L25.84375,1.46875 C25.6447138,1.14814056 25.2821593,0.966863292 24.90625,1 C24.8750172,0.998534497 24.8437328,0.998534497 24.8125,1 Z M25,3.90625 L32.15625,15.53125 C32.3058309,15.7608248 32.5430537,15.9189733 32.8125,15.96875 L45.96875,18.59375 L36.28125,28.28125 C36.0607195,28.503047 35.9566538,28.8152441 36,29.125 L37.78125,42.40625 L25.40625,37.09375 C25.1476183,36.9787785 24.8523817,36.9787785 24.59375,37.09375 L12.21875,42.40625 L14,29.125 C14.0433462,28.8152441 13.9392805,28.503047 13.71875,28.28125 L4.03125,18.59375 L17.1875,15.96875 C17.4569463,15.9189733 17.6941691,15.7608248 17.84375,15.53125 L25,3.90625 Z" id="Shape"></path>
        </g>
    </g>
</svg>