<?xml version="1.0" encoding="UTF-8"?>
<svg width="1080px" height="1080px" viewBox="0 0 1080 1080" version="1.1" xmlns="http://www.w3.org/2000/svg" xmlns:xlink="http://www.w3.org/1999/xlink" style="background: #FFFFFF;">
    <!-- Generator: Sketch 49 (51002) - http://www.bohemiancoding.com/sketch -->
    <title>logo-negative copy</title>
    <desc>Created with Sketch.</desc>
    <defs></defs>
    <g id="logo-negative-copy" stroke="none" stroke-width="1" fill="none" fill-rule="evenodd">
        <g id="Group-4" transform="translate(282.000000, 193.000000)">
            <g id="logo">
                <g id="Group-2" stroke="#FF5656" stroke-width="13">
                    <g id="Group" transform="translate(34.000000, 0.000000)">
                        <path d="M0.128164233,355.447526 C0.128164233,393.579988 19.6867403,429.752445 53.9487311,455.37593 C47.5349526,505.31623 18.9419144,522.892538 17.7005379,523.609613 C14.8591651,525.266854 13.3695133,528.995644 14.1143392,532.58102 C14.845372,536.166396 17.6315726,538.700061 20.8177722,538.700061 C23.4798351,538.684126 85.9762443,537.982986 144.914041,489.699927 C152.582989,490.528547 159.23125,490.895052 165.645028,490.895052 C256.899992,490.895052 331.161892,430.134885 331.161892,355.447526 C331.161892,280.760167 256.899992,220 165.645028,220 C74.3762707,220 0.128164233,280.760167 0.128164233,355.447526 Z M0.128164233,355.447526 C0.128164233,393.579988 19.6867403,429.752445 53.9487311,455.37593 C47.5349526,505.31623 18.9419144,522.892538 17.7005379,523.609613 C14.8591651,525.266854 13.3695133,528.995644 14.1143392,532.58102 C14.845372,536.166396 17.6315726,538.700061 20.8177722,538.700061 C23.4798351,538.684126 85.9762443,537.982986 144.914041,489.699927 C152.582989,490.528547 159.23125,490.895052 165.645028,490.895052 C256.899992,490.895052 331.161892,430.134885 331.161892,355.447526 C331.161892,280.760167 256.899992,220 165.645028,220 C74.3762707,220 0.128164233,280.760167 0.128164233,355.447526 Z" id="frame"></path>
                        <path d="M350.128164,135.447526 C350.128164,173.579988 369.68674,209.752445 403.948731,235.37593 C397.534953,285.31623 368.941914,302.892538 367.700538,303.609613 C364.859165,305.266854 363.369513,308.995644 364.114339,312.58102 C364.845372,316.166396 367.631573,318.700061 370.817772,318.700061 C373.479835,318.684126 435.976244,317.982986 494.914041,269.699927 C502.582989,270.528547 509.23125,270.895052 515.645028,270.895052 C606.899992,270.895052 681.161892,210.134885 681.161892,135.447526 C681.161892,60.7601667 606.899992,0 515.645028,0 C424.376271,0 350.128164,60.7601667 350.128164,135.447526 Z M350.128164,135.447526 C350.128164,173.579988 369.68674,209.752445 403.948731,235.37593 C397.534953,285.31623 368.941914,302.892538 367.700538,303.609613 C364.859165,305.266854 363.369513,308.995644 364.114339,312.58102 C364.845372,316.166396 367.631573,318.700061 370.817772,318.700061 C373.479835,318.684126 435.976244,317.982986 494.914041,269.699927 C502.582989,270.528547 509.23125,270.895052 515.645028,270.895052 C606.899992,270.895052 681.161892,210.134885 681.161892,135.447526 C681.161892,60.7601667 606.899992,0 515.645028,0 C424.376271,0 350.128164,60.7601667 350.128164,135.447526 Z" id="frame-copy"></path>
                    </g>
                    <g id="Group-Copy" transform="translate(200.000000, 307.500000) scale(-1, 1) translate(-200.000000, -307.500000) translate(34.000000, 76.000000)" fill="#FF5656">
                        <g id="logo">
                            <path d="M0.128164233,279.447526 C0.128164233,317.579988 19.6867403,353.752445 53.9487311,379.37593 C47.5349526,429.31623 18.9419144,446.892538 17.7005379,447.609613 C14.8591651,449.266854 13.3695133,452.995644 14.1143392,456.58102 C14.845372,460.166396 17.6315726,462.700061 20.8177722,462.700061 C23.4798351,462.684126 85.9762443,461.982986 144.914041,413.699927 C152.582989,414.528547 159.23125,414.895052 165.645028,414.895052 C256.899992,414.895052 331.161892,354.134885 331.161892,279.447526 C331.161892,204.760167 256.899992,144 165.645028,144 C74.3762707,144 0.128164233,204.760167 0.128164233,279.447526 Z M0.128164233,279.447526 C0.128164233,317.579988 19.6867403,353.752445 53.9487311,379.37593 C47.5349526,429.31623 18.9419144,446.892538 17.7005379,447.609613 C14.8591651,449.266854 13.3695133,452.995644 14.1143392,456.58102 C14.845372,460.166396 17.6315726,462.700061 20.8177722,462.700061 C23.4798351,462.684126 85.9762443,461.982986 144.914041,413.699927 C152.582989,414.528547 159.23125,414.895052 165.645028,414.895052 C256.899992,414.895052 331.161892,354.134885 331.161892,279.447526 C331.161892,204.760167 256.899992,0.774795569 165.645028,0.774795569 C74.3762707,0.774795569 0.128164233,204.760167 0.128164233,279.447526 Z" id="frame"></path>
                        </g>
                    </g>
                    <g id="Group-Copy" transform="translate(325.500000, 479.000000) scale(-1, 1) rotate(-345.000000) translate(-325.500000, -479.000000) translate(263.000000, 438.000000)">
                        <path d="M40.9482975,0.203439938 C34.534519,50.1437395 5.94191442,65.8925382 4.70053794,66.6096133 C1.85916511,68.2668537 0.369513336,71.9956444 1.11433922,75.5810201 C1.84537204,79.1663957 4.63157258,81.7000612 7.81777221,81.7000612 C10.4798351,81.6841262 65.4108378,77.3749539 124.348634,29.0918946 C123.631434,26.4152653 111.950761,25.7874654 84.6435528,20.1403237 C76.2262371,18.3996193 54.8691485,10.5261128 40.9482975,0.203439938 Z" id="frame"></path>
                    </g>
                    <g id="Group-Copy-2" transform="translate(71.500000, 479.000000) rotate(-345.000000) translate(-71.500000, -479.000000) translate(9.000000, 438.000000)">
                        <path d="M40.9482975,0.203439938 C34.534519,50.1437395 5.94191442,65.8925382 4.70053794,66.6096133 C1.85916511,68.2668537 0.369513336,71.9956444 1.11433922,75.5810201 C1.84537204,79.1663957 4.63157258,81.7000612 7.81777221,81.7000612 C10.4798351,81.6841262 65.4108378,77.3749539 124.348634,29.0918946 C123.631434,26.4152653 111.950761,25.7874654 84.6435528,20.1403237 C76.2262371,18.3996193 54.8691485,10.5261128 40.9482975,0.203439938 Z" id="frame"></path>
                    </g>
                </g>
                <circle id="Oval" stroke="#FF5656" stroke-width="15" fill="#FFFFFF" cx="273" cy="343" r="35"></circle>
                <circle id="Oval-Copy" stroke="#FF5656" stroke-width="15" cx="133" cy="343" r="35"></circle>
                <path d="M38.7170729,264.504962 C69.0329653,242.550669 91.2488854,228.577803 105.364833,222.586365 C150.921501,203.250083 187.912995,202.273466 202.55935,202.273466 C215.890852,202.273466 256.896086,206.566015 295.837166,222.586365 C311.653733,229.093296 335.17522,243.066162 366.401627,264.504962" id="Path-2" stroke="#FFFFFF" stroke-width="8"></path>
                <path d="M38.7170729,214.504962 C69.0329653,192.550669 91.2488854,178.577803 105.364833,172.586365 C150.921501,153.250083 187.912995,152.273466 202.55935,152.273466 C215.890852,152.273466 256.896086,156.566015 295.837166,172.586365 C311.653733,179.093296 335.17522,193.066162 366.401627,214.504962" id="Path-2-Copy" stroke="#FFFFFF" stroke-width="8"></path>
                <path d="M38.7170729,174.504962 C69.0329653,152.550669 91.2488854,138.577803 105.364833,132.586365 C150.921501,113.250083 187.912995,112.273466 202.55935,112.273466 C215.890852,112.273466 256.896086,116.566015 295.837166,132.586365 C311.653733,139.093296 335.17522,153.066162 366.401627,174.504962" id="Path-2-Copy-2" stroke="#FFFFFF" stroke-width="8"></path>
            </g>
            <text id="HI-!" font-family="AvenirNext-Bold, Avenir Next" font-size="90" font-weight="bold" fill="#FF5656">
                <tspan x="484" y="169">HI !</tspan>
            </text>
        </g>
        <g id="Group-3" transform="translate(796.000000, 279.000000)"></g>
    </g>
</svg>