<?xml version="1.0" encoding="UTF-8"?>
<svg width="1175px" height="194px" viewBox="0 0 1175 194" version="1.1" xmlns="http://www.w3.org/2000/svg" xmlns:xlink="http://www.w3.org/1999/xlink">
    <!-- Generator: Sketch 49 (51002) - http://www.bohemiancoding.com/sketch -->
    <title>logo_with_text</title>
    <desc>Created with Sketch.</desc>
    <defs></defs>
    <g id="logo_with_text_positive" stroke="none" stroke-width="1" fill="none" fill-rule="evenodd">
        <g id="logo_with_text_positive-copy" transform="translate(-1261.000000, -435.000000)" fill="#FF5656">
            <g id="Group-3" transform="translate(759.000000, 309.000000)">
                <g id="logo_with_text" transform="translate(502.000000, 126.000000)">
                    <g id="text" transform="translate(0.000000, 0.500000)">
                        <path d="M123.310547,190.398438 L72.6611328,190.398438 L49.5263672,128.630859 C49.3017567,127.582677 48.9086942,126.1976 48.347168,124.475586 C47.7856417,122.753572 47.0931031,120.694673 46.2695312,118.298828 L46.6064453,129.753906 L46.6064453,190.398438 L0,190.398438 L0,17 L47.9541016,17 C69.0674884,17 84.8648564,21.1552319 95.3466797,29.4658203 C108.673569,40.0973839 115.336914,55.2209306 115.336914,74.8369141 C115.336914,95.8005605 106.390063,110.28772 88.4960938,118.298828 L123.310547,190.398438 Z M46.8310547,97.2978516 L49.9755859,97.2978516 C55.3662379,97.2978516 59.8583805,95.2389529 63.4521484,91.1210938 C67.0459164,87.0032346 68.8427734,81.7624016 68.8427734,75.3984375 C68.8427734,62.4458988 62.067125,55.9697266 48.515625,55.9697266 L46.8310547,55.9697266 L46.8310547,97.2978516 Z M199.228516,149.294922 L243.251953,150.193359 C240.107406,164.343821 233.986862,174.993942 224.890137,182.144043 C215.793412,189.294144 203.907951,192.869141 189.233398,192.869141 C171.86352,192.869141 158.237354,187.47857 148.354492,176.697266 C138.5465,165.766221 133.642578,150.829847 133.642578,131.887695 C133.642578,112.646063 138.920846,96.9609981 149.477539,84.8320312 C160.034232,72.6281942 173.660398,66.5263672 190.356445,66.5263672 C206.977622,66.5263672 220.229443,72.4035871 230.112305,84.1582031 C239.995167,95.9876894 244.936523,111.672754 244.936523,131.213867 L244.711914,139.1875 L178.676758,139.1875 C179.200849,151.615948 182.719694,157.830078 189.233398,157.830078 C194.32457,157.830078 197.656242,154.985054 199.228516,149.294922 Z M200.239258,114.929688 C200.239258,112.683583 199.977216,110.624684 199.453125,108.75293 C198.929034,106.881176 198.199061,105.271491 197.263184,103.923828 C196.327307,102.576165 195.222988,101.509281 193.950195,100.723145 C192.677402,99.9370078 191.292325,99.5439453 189.794922,99.5439453 C186.650375,99.5439453 184.104827,100.985174 182.158203,103.867676 C180.211579,106.750177 179.238281,110.437478 179.238281,114.929688 L200.239258,114.929688 Z M370.717773,190.398438 L325.571289,190.398438 C325.94564,186.355449 326.245116,182.499693 326.469727,178.831055 C326.694337,175.162417 326.918944,172.205089 327.143555,169.958984 C319.357057,185.232498 308.912826,192.869141 295.810547,192.869141 C284.430282,192.869141 275.408562,187.179093 268.745117,175.798828 C262.156543,164.493433 258.862305,148.845803 258.862305,128.855469 C258.862305,109.538966 262.268846,94.3405502 269.082031,83.2597656 C275.895216,72.0292407 285.178978,66.4140625 296.933594,66.4140625 C308.98769,66.4140625 318.720666,73.6763597 326.132812,88.2011719 C325.983072,86.7037686 325.870769,85.3935603 325.795898,84.2705078 C325.721028,83.1474553 325.646159,82.2115923 325.571289,81.4628906 L325.12207,74.3876953 L324.785156,68.9970703 L370.717773,68.9970703 L370.717773,190.398438 Z M325.12207,128.181641 C325.12207,123.689431 324.953615,119.871109 324.616699,116.726562 C324.279783,113.582016 323.736983,111.017751 322.988281,109.033691 C322.23958,107.049632 321.266282,105.62712 320.068359,104.766113 C318.870437,103.905106 317.41049,103.474609 315.688477,103.474609 C308.05172,103.474609 304.233398,113.619365 304.233398,133.90918 C304.233398,148.433992 307.63994,155.696289 314.453125,155.696289 C321.565791,155.696289 325.12207,146.524831 325.12207,128.181641 Z M454.609375,150.754883 L454.609375,192.195312 C451.914049,192.494793 449.555674,192.700683 447.53418,192.812988 C445.512685,192.925294 443.828132,192.981445 442.480469,192.981445 C429.003839,192.981445 417.736048,188.938517 408.676758,180.852539 C402.537404,175.387017 397.558613,167.900113 393.740234,158.391602 C389.921856,148.88309 388.012695,139.11268 388.012695,129.080078 C388.012695,111.260979 393.478135,96.3246045 404.40918,84.2705078 C415.265354,72.3661514 428.966389,66.4140625 445.512695,66.4140625 C446.486007,66.4140625 447.721347,66.451497 449.21875,66.5263672 C450.716153,66.6012374 452.51301,66.7135409 454.609375,66.8632812 L454.609375,106.394531 C441.282485,107.292973 434.619141,114.55527 434.619141,128.181641 C434.619141,134.320994 436.26626,139.711565 439.560547,144.353516 C442.929704,148.770855 446.935198,150.979492 451.577148,150.979492 C452.026369,150.979492 452.494301,150.960775 452.980957,150.92334 C453.467613,150.885905 454.010414,150.829753 454.609375,150.754883 Z M521.430664,190.398438 L476.28418,190.398438 L476.28418,105.271484 L463.481445,105.271484 L463.481445,68.9970703 L476.28418,68.9970703 L476.28418,33.2841797 L521.430664,33.2841797 L521.430664,68.9970703 L536.367188,68.9970703 L536.367188,105.271484 L521.430664,105.271484 L521.430664,190.398438 Z" id="React"></path>
                        <path d="M674.689453,42.1142578 L653.463867,54.6923828 C649.495748,47.8043275 645.714862,43.312185 642.121094,41.2158203 C638.377585,38.819975 633.548532,37.6220703 627.633789,37.6220703 C620.371383,37.6220703 614.344425,39.680969 609.552734,43.7988281 C604.761044,47.8418171 602.365234,52.932912 602.365234,59.0722656 C602.365234,67.5325944 608.654234,74.3456773 621.232422,79.5117188 L638.527344,86.5869141 C652.602935,92.2770467 662.897428,99.2211504 669.411133,107.419434 C675.924837,115.617717 679.181641,125.668886 679.181641,137.573242 C679.181641,153.520588 673.865939,166.697539 663.234375,177.104492 C652.527941,187.586315 639.238686,192.827148 623.366211,192.827148 C608.317308,192.827148 595.889046,188.37244 586.081055,179.462891 C576.422803,170.553341 570.395845,158.012776 568,141.84082 L594.503906,136.000977 C595.701829,146.183319 597.798162,153.221009 600.792969,157.114258 C606.183621,164.601274 614.04487,168.344727 624.376953,168.344727 C632.537801,168.344727 639.31345,165.612006 644.704102,160.146484 C650.094754,154.680962 652.790039,147.755576 652.790039,139.370117 C652.790039,136.00096 652.322108,132.912612 651.38623,130.10498 C650.450353,127.297349 648.990407,124.714367 647.006348,122.355957 C645.022288,119.997547 642.458024,117.78891 639.313477,115.72998 C636.16893,113.671051 632.425477,111.705739 628.083008,109.833984 L611.349609,102.871094 C587.615767,92.8384915 575.749023,78.1641591 575.749023,58.8476562 C575.749023,45.8202474 580.727815,34.9268016 590.685547,26.1669922 C600.643279,17.3323126 613.034106,12.9150391 627.858398,12.9150391 C647.848733,12.9150391 663.458928,22.6480146 674.689453,42.1142578 Z M700.744141,134.204102 C700.744141,118.406497 706.396753,104.967503 717.702148,93.8867188 C729.007544,82.8059342 742.783447,77.265625 759.030273,77.265625 C775.35197,77.265625 789.202743,82.8433687 800.583008,93.9990234 C811.813533,105.154678 817.428711,118.855713 817.428711,135.102539 C817.428711,151.499105 811.776098,165.237575 800.470703,176.318359 C789.090438,187.324274 775.127361,192.827148 758.581055,192.827148 C742.184488,192.827148 728.446019,187.21197 717.365234,175.981445 C706.28445,164.900661 700.744141,150.975019 700.744141,134.204102 Z M726.574219,134.65332 C726.574219,145.584365 729.494111,154.231739 735.333984,160.595703 C741.323598,167.034537 749.222282,170.253906 759.030273,170.253906 C768.913135,170.253906 776.811819,167.071972 782.726562,160.708008 C788.641306,154.344044 791.598633,145.846407 791.598633,135.214844 C791.598633,124.58328 788.641306,116.085644 782.726562,109.72168 C776.736949,103.282845 768.838265,100.063477 759.030273,100.063477 C749.372022,100.063477 741.548207,103.282845 735.558594,109.72168 C729.56898,116.160514 726.574219,124.470978 726.574219,134.65332 Z M929.28418,85.0146484 L929.28418,118.59375 C923.519177,111.555954 918.353213,106.726901 913.786133,104.106445 C909.293923,101.411119 904.015655,100.063477 897.951172,100.063477 C888.442661,100.063477 880.543977,103.395149 874.254883,110.058594 C867.965789,116.722039 864.821289,125.069937 864.821289,135.102539 C864.821289,145.359752 867.853485,153.782519 873.917969,160.371094 C880.057322,166.959668 887.881137,170.253906 897.389648,170.253906 C903.454132,170.253906 908.807268,168.943698 913.449219,166.323242 C917.941429,163.777657 923.219696,158.8363 929.28418,151.499023 L929.28418,184.853516 C919.026967,190.169297 908.769908,192.827148 898.512695,192.827148 C881.592038,192.827148 867.441789,187.361708 856.061523,176.430664 C844.681258,165.42475 838.991211,151.761149 838.991211,135.439453 C838.991211,119.117757 844.756127,105.341853 856.286133,94.1113281 C867.816138,82.8808032 881.966387,77.265625 898.737305,77.265625 C909.518609,77.265625 919.700798,79.848607 929.28418,85.0146484 Z M979.035156,80.2978516 L979.035156,189.682617 L953.766602,189.682617 L953.766602,80.2978516 L979.035156,80.2978516 Z M949.948242,34.8144531 C949.948242,30.3971133 951.557927,26.5787921 954.777344,23.359375 C957.996761,20.1399579 961.852517,18.5302734 966.344727,18.5302734 C970.911807,18.5302734 974.804997,20.1399579 978.024414,23.359375 C981.243831,26.503922 982.853516,30.3596777 982.853516,34.9267578 C982.853516,39.4938379 981.243831,43.3870282 978.024414,46.6064453 C974.879867,49.8258625 971.024111,51.4355469 966.457031,51.4355469 C961.889951,51.4355469 957.996761,49.8258625 954.777344,46.6064453 C951.557927,43.3870282 949.948242,39.4564034 949.948242,34.8144531 Z M1091.67676,80.2978516 L1117.05762,80.2978516 L1117.05762,189.682617 L1091.67676,189.682617 L1091.67676,178.227539 C1081.2698,187.960661 1070.07688,192.827148 1058.09766,192.827148 C1042.97388,192.827148 1030.47075,187.361708 1020.58789,176.430664 C1010.7799,165.275009 1005.87598,151.349367 1005.87598,134.65332 C1005.87598,118.256754 1010.7799,104.593154 1020.58789,93.6621094 C1030.39588,82.7310651 1042.67441,77.265625 1057.42383,77.265625 C1070.15176,77.265625 1081.56929,82.506458 1091.67676,92.9882812 L1091.67676,80.2978516 Z M1031.70605,134.65332 C1031.70605,145.135144 1034.51364,153.670214 1040.12891,160.258789 C1045.89391,166.922234 1053.15621,170.253906 1061.91602,170.253906 C1071.27479,170.253906 1078.83656,167.034537 1084.60156,160.595703 C1090.36657,153.932258 1093.24902,145.472056 1093.24902,135.214844 C1093.24902,124.957631 1090.36657,116.497429 1084.60156,109.833984 C1078.83656,103.32028 1071.34966,100.063477 1062.14062,100.063477 C1053.45569,100.063477 1046.19339,103.357714 1040.35352,109.946289 C1034.58851,116.609734 1031.70605,124.845329 1031.70605,134.65332 Z M1174.2207,0 L1174.2207,189.682617 L1148.95215,189.682617 L1148.95215,0 L1174.2207,0 Z" id="Social"></path>
                    </g>
                </g>
            </g>
        </g>
    </g>
</svg>