<?xml version="1.0" encoding="UTF-8"?>
<svg width="405px" height="476px" viewBox="0 0 405 476" version="1.1" xmlns="http://www.w3.org/2000/svg" xmlns:xlink="http://www.w3.org/1999/xlink">
    <!-- Generator: Sketch 49 (51002) - http://www.bohemiancoding.com/sketch -->
    <title>Group 4</title>
    <desc>Created with Sketch.</desc>
    <defs></defs>
    <g id="Page-1" stroke="none" stroke-width="1" fill="none" fill-rule="evenodd">
        <g id="logo-negative-copy-2" transform="translate(-338.000000, -303.000000)">
            <g id="Group-4" transform="translate(342.000000, 309.000000)">
                <g id="logo">
                    <g id="Group-2" stroke="#FF5656" stroke-width="13">
                        <g id="Group" transform="translate(34.000000, 144.000000)">
                            <path d="M0.128164233,135.447526 C0.128164233,173.579988 19.6867403,209.752445 53.9487311,235.37593 C47.5349526,285.31623 18.9419144,302.892538 17.7005379,303.609613 C14.8591651,305.266854 13.3695133,308.995644 14.1143392,312.58102 C14.845372,316.166396 17.6315726,318.700061 20.8177722,318.700061 C23.4798351,318.684126 85.9762443,317.982986 144.914041,269.699927 C152.582989,270.528547 159.23125,270.895052 165.645028,270.895052 C256.899992,270.895052 331.161892,210.134885 331.161892,135.447526 C331.161892,60.7601667 256.899992,0 165.645028,0 C74.3762707,0 0.128164233,60.7601667 0.128164233,135.447526 Z M0.128164233,135.447526 C0.128164233,173.579988 19.6867403,209.752445 53.9487311,235.37593 C47.5349526,285.31623 18.9419144,302.892538 17.7005379,303.609613 C14.8591651,305.266854 13.3695133,308.995644 14.1143392,312.58102 C14.845372,316.166396 17.6315726,318.700061 20.8177722,318.700061 C23.4798351,318.684126 85.9762443,317.982986 144.914041,269.699927 C152.582989,270.528547 159.23125,270.895052 165.645028,270.895052 C256.899992,270.895052 331.161892,210.134885 331.161892,135.447526 C331.161892,60.7601667 256.899992,0 165.645028,0 C74.3762707,0 0.128164233,60.7601667 0.128164233,135.447526 Z" id="frame"></path>
                        </g>
                        <g id="Group-Copy" transform="translate(200.000000, 231.500000) scale(-1, 1) translate(-200.000000, -231.500000) translate(34.000000, 0.000000)" fill="#FF5656">
                            <g id="logo">
                                <path d="M0.128164233,279.447526 C0.128164233,317.579988 19.6867403,353.752445 53.9487311,379.37593 C47.5349526,429.31623 18.9419144,446.892538 17.7005379,447.609613 C14.8591651,449.266854 13.3695133,452.995644 14.1143392,456.58102 C14.845372,460.166396 17.6315726,462.700061 20.8177722,462.700061 C23.4798351,462.684126 85.9762443,461.982986 144.914041,413.699927 C152.582989,414.528547 159.23125,414.895052 165.645028,414.895052 C256.899992,414.895052 331.161892,354.134885 331.161892,279.447526 C331.161892,204.760167 256.899992,144 165.645028,144 C74.3762707,144 0.128164233,204.760167 0.128164233,279.447526 Z M0.128164233,279.447526 C0.128164233,317.579988 19.6867403,353.752445 53.9487311,379.37593 C47.5349526,429.31623 18.9419144,446.892538 17.7005379,447.609613 C14.8591651,449.266854 13.3695133,452.995644 14.1143392,456.58102 C14.845372,460.166396 17.6315726,462.700061 20.8177722,462.700061 C23.4798351,462.684126 85.9762443,461.982986 144.914041,413.699927 C152.582989,414.528547 159.23125,414.895052 165.645028,414.895052 C256.899992,414.895052 331.161892,354.134885 331.161892,279.447526 C331.161892,204.760167 256.899992,0.774795569 165.645028,0.774795569 C74.3762707,0.774795569 0.128164233,204.760167 0.128164233,279.447526 Z" id="frame"></path>
                            </g>
                        </g>
                        <g id="Group-Copy" transform="translate(325.500000, 403.000000) scale(-1, 1) rotate(-345.000000) translate(-325.500000, -403.000000) translate(263.000000, 362.000000)">
                            <path d="M40.9482975,0.203439938 C34.534519,50.1437395 5.94191442,65.8925382 4.70053794,66.6096133 C1.85916511,68.2668537 0.369513336,71.9956444 1.11433922,75.5810201 C1.84537204,79.1663957 4.63157258,81.7000612 7.81777221,81.7000612 C10.4798351,81.6841262 65.4108378,77.3749539 124.348634,29.0918946 C123.631434,26.4152653 111.950761,25.7874654 84.6435528,20.1403237 C76.2262371,18.3996193 54.8691485,10.5261128 40.9482975,0.203439938 Z" id="frame"></path>
                        </g>
                        <g id="Group-Copy-2" transform="translate(71.500000, 403.000000) rotate(-345.000000) translate(-71.500000, -403.000000) translate(9.000000, 362.000000)">
                            <path d="M40.9482975,0.203439938 C34.534519,50.1437395 5.94191442,65.8925382 4.70053794,66.6096133 C1.85916511,68.2668537 0.369513336,71.9956444 1.11433922,75.5810201 C1.84537204,79.1663957 4.63157258,81.7000612 7.81777221,81.7000612 C10.4798351,81.6841262 65.4108378,77.3749539 124.348634,29.0918946 C123.631434,26.4152653 111.950761,25.7874654 84.6435528,20.1403237 C76.2262371,18.3996193 54.8691485,10.5261128 40.9482975,0.203439938 Z" id="frame"></path>
                        </g>
                    </g>
                    <circle id="Oval" stroke="#FF5656" stroke-width="15" fill="#FFFFFF" cx="273" cy="267" r="35"></circle>
                    <circle id="Oval-Copy" stroke="#FF5656" stroke-width="15" cx="133" cy="267" r="35"></circle>
                    <path d="M38.7170729,188.504962 C69.0329653,166.550669 91.2488854,152.577803 105.364833,146.586365 C150.921501,127.250083 187.912995,126.273466 202.55935,126.273466 C215.890852,126.273466 256.896086,130.566015 295.837166,146.586365 C311.653733,153.093296 335.17522,167.066162 366.401627,188.504962" id="Path-2" stroke="#FFFFFF" stroke-width="8"></path>
                    <path d="M38.7170729,138.504962 C69.0329653,116.550669 91.2488854,102.577803 105.364833,96.5863653 C150.921501,77.2500835 187.912995,76.2734662 202.55935,76.2734662 C215.890852,76.2734662 256.896086,80.5660154 295.837166,96.5863653 C311.653733,103.093296 335.17522,117.066162 366.401627,138.504962" id="Path-2-Copy" stroke="#FFFFFF" stroke-width="8"></path>
                    <path d="M38.7170729,98.5049623 C69.0329653,76.5506687 91.2488854,62.5778031 105.364833,56.5863653 C150.921501,37.2500835 187.912995,36.2734662 202.55935,36.2734662 C215.890852,36.2734662 256.896086,40.5660154 295.837166,56.5863653 C311.653733,63.0932964 335.17522,77.0661621 366.401627,98.5049623" id="Path-2-Copy-2" stroke="#FFFFFF" stroke-width="8"></path>
                </g>
            </g>
        </g>
    </g>
</svg>