<?xml version="1.0" encoding="UTF-8"?>
<svg width="1700px" height="476px" viewBox="0 0 1700 476" version="1.1" xmlns="http://www.w3.org/2000/svg" xmlns:xlink="http://www.w3.org/1999/xlink">
    <!-- Generator: Sketch 49 (51002) - http://www.bohemiancoding.com/sketch -->
    <title>Group 3</title>
    <desc>Created with Sketch.</desc>
    <defs></defs>
    <g id="logo_with_text_positive" stroke="none" stroke-width="1" fill="none" fill-rule="evenodd">
        <g id="logo_with_text_positive-copy" transform="translate(-755.000000, -303.000000)">
            <g id="Group-3" transform="translate(759.000000, 309.000000)">
                <g id="logo_with_text" transform="translate(502.000000, 135.000000)" fill="#FF5656">
                    <g id="text" transform="translate(0.000000, 0.500000)">
                        <path d="M123.310547,181.398438 L72.6611328,181.398438 L49.5263672,119.630859 C49.3017567,118.582677 48.9086942,117.1976 48.347168,115.475586 C47.7856417,113.753572 47.0931031,111.694673 46.2695312,109.298828 L46.6064453,120.753906 L46.6064453,181.398438 L0,181.398438 L0,8 L47.9541016,8 C69.0674884,8 84.8648564,12.1552319 95.3466797,20.4658203 C108.673569,31.0973839 115.336914,46.2209306 115.336914,65.8369141 C115.336914,86.8005605 106.390063,101.28772 88.4960938,109.298828 L123.310547,181.398438 Z M46.8310547,88.2978516 L49.9755859,88.2978516 C55.3662379,88.2978516 59.8583805,86.2389529 63.4521484,82.1210938 C67.0459164,78.0032346 68.8427734,72.7624016 68.8427734,66.3984375 C68.8427734,53.4458988 62.067125,46.9697266 48.515625,46.9697266 L46.8310547,46.9697266 L46.8310547,88.2978516 Z M199.228516,140.294922 L243.251953,141.193359 C240.107406,155.343821 233.986862,165.993942 224.890137,173.144043 C215.793412,180.294144 203.907951,183.869141 189.233398,183.869141 C171.86352,183.869141 158.237354,178.47857 148.354492,167.697266 C138.5465,156.766221 133.642578,141.829847 133.642578,122.887695 C133.642578,103.646063 138.920846,87.9609981 149.477539,75.8320312 C160.034232,63.6281942 173.660398,57.5263672 190.356445,57.5263672 C206.977622,57.5263672 220.229443,63.4035871 230.112305,75.1582031 C239.995167,86.9876894 244.936523,102.672754 244.936523,122.213867 L244.711914,130.1875 L178.676758,130.1875 C179.200849,142.615948 182.719694,148.830078 189.233398,148.830078 C194.32457,148.830078 197.656242,145.985054 199.228516,140.294922 Z M200.239258,105.929688 C200.239258,103.683583 199.977216,101.624684 199.453125,99.7529297 C198.929034,97.8811755 198.199061,96.2714911 197.263184,94.9238281 C196.327307,93.5761651 195.222988,92.5092813 193.950195,91.7231445 C192.677402,90.9370078 191.292325,90.5439453 189.794922,90.5439453 C186.650375,90.5439453 184.104827,91.9851744 182.158203,94.8676758 C180.211579,97.7501772 179.238281,101.437478 179.238281,105.929688 L200.239258,105.929688 Z M370.717773,181.398438 L325.571289,181.398438 C325.94564,177.355449 326.245116,173.499693 326.469727,169.831055 C326.694337,166.162417 326.918944,163.205089 327.143555,160.958984 C319.357057,176.232498 308.912826,183.869141 295.810547,183.869141 C284.430282,183.869141 275.408562,178.179093 268.745117,166.798828 C262.156543,155.493433 258.862305,139.845803 258.862305,119.855469 C258.862305,100.538966 262.268846,85.3405502 269.082031,74.2597656 C275.895216,63.0292407 285.178978,57.4140625 296.933594,57.4140625 C308.98769,57.4140625 318.720666,64.6763597 326.132812,79.2011719 C325.983072,77.7037686 325.870769,76.3935603 325.795898,75.2705078 C325.721028,74.1474553 325.646159,73.2115923 325.571289,72.4628906 L325.12207,65.3876953 L324.785156,59.9970703 L370.717773,59.9970703 L370.717773,181.398438 Z M325.12207,119.181641 C325.12207,114.689431 324.953615,110.871109 324.616699,107.726562 C324.279783,104.582016 323.736983,102.017751 322.988281,100.033691 C322.23958,98.049632 321.266282,96.6271202 320.068359,95.7661133 C318.870437,94.9051064 317.41049,94.4746094 315.688477,94.4746094 C308.05172,94.4746094 304.233398,104.619365 304.233398,124.90918 C304.233398,139.433992 307.63994,146.696289 314.453125,146.696289 C321.565791,146.696289 325.12207,137.524831 325.12207,119.181641 Z M454.609375,141.754883 L454.609375,183.195312 C451.914049,183.494793 449.555674,183.700683 447.53418,183.812988 C445.512685,183.925294 443.828132,183.981445 442.480469,183.981445 C429.003839,183.981445 417.736048,179.938517 408.676758,171.852539 C402.537404,166.387017 397.558613,158.900113 393.740234,149.391602 C389.921856,139.88309 388.012695,130.11268 388.012695,120.080078 C388.012695,102.260979 393.478135,87.3246045 404.40918,75.2705078 C415.265354,63.3661514 428.966389,57.4140625 445.512695,57.4140625 C446.486007,57.4140625 447.721347,57.451497 449.21875,57.5263672 C450.716153,57.6012374 452.51301,57.7135409 454.609375,57.8632812 L454.609375,97.3945312 C441.282485,98.2929732 434.619141,105.55527 434.619141,119.181641 C434.619141,125.320994 436.26626,130.711565 439.560547,135.353516 C442.929704,139.770855 446.935198,141.979492 451.577148,141.979492 C452.026369,141.979492 452.494301,141.960775 452.980957,141.92334 C453.467613,141.885905 454.010414,141.829753 454.609375,141.754883 Z M521.430664,181.398438 L476.28418,181.398438 L476.28418,96.2714844 L463.481445,96.2714844 L463.481445,59.9970703 L476.28418,59.9970703 L476.28418,24.2841797 L521.430664,24.2841797 L521.430664,59.9970703 L536.367188,59.9970703 L536.367188,96.2714844 L521.430664,96.2714844 L521.430664,181.398438 Z" id="React"></path>
                        <path d="M693.689453,42.1142578 L672.463867,54.6923828 C668.495748,47.8043275 664.714862,43.312185 661.121094,41.2158203 C657.377585,38.819975 652.548532,37.6220703 646.633789,37.6220703 C639.371383,37.6220703 633.344425,39.680969 628.552734,43.7988281 C623.761044,47.8418171 621.365234,52.932912 621.365234,59.0722656 C621.365234,67.5325944 627.654234,74.3456773 640.232422,79.5117188 L657.527344,86.5869141 C671.602935,92.2770467 681.897428,99.2211504 688.411133,107.419434 C694.924837,115.617717 698.181641,125.668886 698.181641,137.573242 C698.181641,153.520588 692.865939,166.697539 682.234375,177.104492 C671.527941,187.586315 658.238686,192.827148 642.366211,192.827148 C627.317308,192.827148 614.889046,188.37244 605.081055,179.462891 C595.422803,170.553341 589.395845,158.012776 587,141.84082 L613.503906,136.000977 C614.701829,146.183319 616.798162,153.221009 619.792969,157.114258 C625.183621,164.601274 633.04487,168.344727 643.376953,168.344727 C651.537801,168.344727 658.31345,165.612006 663.704102,160.146484 C669.094754,154.680962 671.790039,147.755576 671.790039,139.370117 C671.790039,136.00096 671.322108,132.912612 670.38623,130.10498 C669.450353,127.297349 667.990407,124.714367 666.006348,122.355957 C664.022288,119.997547 661.458024,117.78891 658.313477,115.72998 C655.16893,113.671051 651.425477,111.705739 647.083008,109.833984 L630.349609,102.871094 C606.615767,92.8384915 594.749023,78.1641591 594.749023,58.8476562 C594.749023,45.8202474 599.727815,34.9268016 609.685547,26.1669922 C619.643279,17.3323126 632.034106,12.9150391 646.858398,12.9150391 C666.848733,12.9150391 682.458928,22.6480146 693.689453,42.1142578 Z M719.744141,134.204102 C719.744141,118.406497 725.396753,104.967503 736.702148,93.8867188 C748.007544,82.8059342 761.783447,77.265625 778.030273,77.265625 C794.35197,77.265625 808.202743,82.8433687 819.583008,93.9990234 C830.813533,105.154678 836.428711,118.855713 836.428711,135.102539 C836.428711,151.499105 830.776098,165.237575 819.470703,176.318359 C808.090438,187.324274 794.127361,192.827148 777.581055,192.827148 C761.184488,192.827148 747.446019,187.21197 736.365234,175.981445 C725.28445,164.900661 719.744141,150.975019 719.744141,134.204102 Z M745.574219,134.65332 C745.574219,145.584365 748.494111,154.231739 754.333984,160.595703 C760.323598,167.034537 768.222282,170.253906 778.030273,170.253906 C787.913135,170.253906 795.811819,167.071972 801.726562,160.708008 C807.641306,154.344044 810.598633,145.846407 810.598633,135.214844 C810.598633,124.58328 807.641306,116.085644 801.726562,109.72168 C795.736949,103.282845 787.838265,100.063477 778.030273,100.063477 C768.372022,100.063477 760.548207,103.282845 754.558594,109.72168 C748.56898,116.160514 745.574219,124.470978 745.574219,134.65332 Z M948.28418,85.0146484 L948.28418,118.59375 C942.519177,111.555954 937.353213,106.726901 932.786133,104.106445 C928.293923,101.411119 923.015655,100.063477 916.951172,100.063477 C907.442661,100.063477 899.543977,103.395149 893.254883,110.058594 C886.965789,116.722039 883.821289,125.069937 883.821289,135.102539 C883.821289,145.359752 886.853485,153.782519 892.917969,160.371094 C899.057322,166.959668 906.881137,170.253906 916.389648,170.253906 C922.454132,170.253906 927.807268,168.943698 932.449219,166.323242 C936.941429,163.777657 942.219696,158.8363 948.28418,151.499023 L948.28418,184.853516 C938.026967,190.169297 927.769908,192.827148 917.512695,192.827148 C900.592038,192.827148 886.441789,187.361708 875.061523,176.430664 C863.681258,165.42475 857.991211,151.761149 857.991211,135.439453 C857.991211,119.117757 863.756127,105.341853 875.286133,94.1113281 C886.816138,82.8808032 900.966387,77.265625 917.737305,77.265625 C928.518609,77.265625 938.700798,79.848607 948.28418,85.0146484 Z M998.035156,80.2978516 L998.035156,189.682617 L972.766602,189.682617 L972.766602,80.2978516 L998.035156,80.2978516 Z M968.948242,34.8144531 C968.948242,30.3971133 970.557927,26.5787921 973.777344,23.359375 C976.996761,20.1399579 980.852517,18.5302734 985.344727,18.5302734 C989.911807,18.5302734 993.804997,20.1399579 997.024414,23.359375 C1000.24383,26.503922 1001.85352,30.3596777 1001.85352,34.9267578 C1001.85352,39.4938379 1000.24383,43.3870282 997.024414,46.6064453 C993.879867,49.8258625 990.024111,51.4355469 985.457031,51.4355469 C980.889951,51.4355469 976.996761,49.8258625 973.777344,46.6064453 C970.557927,43.3870282 968.948242,39.4564034 968.948242,34.8144531 Z M1110.67676,80.2978516 L1136.05762,80.2978516 L1136.05762,189.682617 L1110.67676,189.682617 L1110.67676,178.227539 C1100.2698,187.960661 1089.07688,192.827148 1077.09766,192.827148 C1061.97388,192.827148 1049.47075,187.361708 1039.58789,176.430664 C1029.7799,165.275009 1024.87598,151.349367 1024.87598,134.65332 C1024.87598,118.256754 1029.7799,104.593154 1039.58789,93.6621094 C1049.39588,82.7310651 1061.67441,77.265625 1076.42383,77.265625 C1089.15176,77.265625 1100.56929,82.506458 1110.67676,92.9882812 L1110.67676,80.2978516 Z M1050.70605,134.65332 C1050.70605,145.135144 1053.51364,153.670214 1059.12891,160.258789 C1064.89391,166.922234 1072.15621,170.253906 1080.91602,170.253906 C1090.27479,170.253906 1097.83656,167.034537 1103.60156,160.595703 C1109.36657,153.932258 1112.24902,145.472056 1112.24902,135.214844 C1112.24902,124.957631 1109.36657,116.497429 1103.60156,109.833984 C1097.83656,103.32028 1090.34966,100.063477 1081.14062,100.063477 C1072.45569,100.063477 1065.19339,103.357714 1059.35352,109.946289 C1053.58851,116.609734 1050.70605,124.845329 1050.70605,134.65332 Z M1193.2207,0 L1193.2207,189.682617 L1167.95215,189.682617 L1167.95215,0 L1193.2207,0 Z" id="Social"></path>
                    </g>
                </g>
                <g id="Group-4">
                    <g id="logo">
                        <g id="Group-2" stroke="#FF5656" stroke-width="13">
                            <g id="Group" transform="translate(34.000000, 144.000000)">
                                <path d="M0.128164233,135.447526 C0.128164233,173.579988 19.6867403,209.752445 53.9487311,235.37593 C47.5349526,285.31623 18.9419144,302.892538 17.7005379,303.609613 C14.8591651,305.266854 13.3695133,308.995644 14.1143392,312.58102 C14.845372,316.166396 17.6315726,318.700061 20.8177722,318.700061 C23.4798351,318.684126 85.9762443,317.982986 144.914041,269.699927 C152.582989,270.528547 159.23125,270.895052 165.645028,270.895052 C256.899992,270.895052 331.161892,210.134885 331.161892,135.447526 C331.161892,60.7601667 256.899992,0 165.645028,0 C74.3762707,0 0.128164233,60.7601667 0.128164233,135.447526 Z M0.128164233,135.447526 C0.128164233,173.579988 19.6867403,209.752445 53.9487311,235.37593 C47.5349526,285.31623 18.9419144,302.892538 17.7005379,303.609613 C14.8591651,305.266854 13.3695133,308.995644 14.1143392,312.58102 C14.845372,316.166396 17.6315726,318.700061 20.8177722,318.700061 C23.4798351,318.684126 85.9762443,317.982986 144.914041,269.699927 C152.582989,270.528547 159.23125,270.895052 165.645028,270.895052 C256.899992,270.895052 331.161892,210.134885 331.161892,135.447526 C331.161892,60.7601667 256.899992,0 165.645028,0 C74.3762707,0 0.128164233,60.7601667 0.128164233,135.447526 Z" id="frame"></path>
                            </g>
                            <g id="Group-Copy" transform="translate(200.000000, 231.500000) scale(-1, 1) translate(-200.000000, -231.500000) translate(34.000000, 0.000000)" fill="#FF5656">
                                <g id="logo">
                                    <path d="M0.128164233,279.447526 C0.128164233,317.579988 19.6867403,353.752445 53.9487311,379.37593 C47.5349526,429.31623 18.9419144,446.892538 17.7005379,447.609613 C14.8591651,449.266854 13.3695133,452.995644 14.1143392,456.58102 C14.845372,460.166396 17.6315726,462.700061 20.8177722,462.700061 C23.4798351,462.684126 85.9762443,461.982986 144.914041,413.699927 C152.582989,414.528547 159.23125,414.895052 165.645028,414.895052 C256.899992,414.895052 331.161892,354.134885 331.161892,279.447526 C331.161892,204.760167 256.899992,144 165.645028,144 C74.3762707,144 0.128164233,204.760167 0.128164233,279.447526 Z M0.128164233,279.447526 C0.128164233,317.579988 19.6867403,353.752445 53.9487311,379.37593 C47.5349526,429.31623 18.9419144,446.892538 17.7005379,447.609613 C14.8591651,449.266854 13.3695133,452.995644 14.1143392,456.58102 C14.845372,460.166396 17.6315726,462.700061 20.8177722,462.700061 C23.4798351,462.684126 85.9762443,461.982986 144.914041,413.699927 C152.582989,414.528547 159.23125,414.895052 165.645028,414.895052 C256.899992,414.895052 331.161892,354.134885 331.161892,279.447526 C331.161892,204.760167 256.899992,0.774795569 165.645028,0.774795569 C74.3762707,0.774795569 0.128164233,204.760167 0.128164233,279.447526 Z" id="frame"></path>
                                </g>
                            </g>
                            <g id="Group-Copy" transform="translate(325.500000, 403.000000) scale(-1, 1) rotate(-345.000000) translate(-325.500000, -403.000000) translate(263.000000, 362.000000)">
                                <path d="M40.9482975,0.203439938 C34.534519,50.1437395 5.94191442,65.8925382 4.70053794,66.6096133 C1.85916511,68.2668537 0.369513336,71.9956444 1.11433922,75.5810201 C1.84537204,79.1663957 4.63157258,81.7000612 7.81777221,81.7000612 C10.4798351,81.6841262 65.4108378,77.3749539 124.348634,29.0918946 C123.631434,26.4152653 111.950761,25.7874654 84.6435528,20.1403237 C76.2262371,18.3996193 54.8691485,10.5261128 40.9482975,0.203439938 Z" id="frame"></path>
                            </g>
                            <g id="Group-Copy-2" transform="translate(71.500000, 403.000000) rotate(-345.000000) translate(-71.500000, -403.000000) translate(9.000000, 362.000000)">
                                <path d="M40.9482975,0.203439938 C34.534519,50.1437395 5.94191442,65.8925382 4.70053794,66.6096133 C1.85916511,68.2668537 0.369513336,71.9956444 1.11433922,75.5810201 C1.84537204,79.1663957 4.63157258,81.7000612 7.81777221,81.7000612 C10.4798351,81.6841262 65.4108378,77.3749539 124.348634,29.0918946 C123.631434,26.4152653 111.950761,25.7874654 84.6435528,20.1403237 C76.2262371,18.3996193 54.8691485,10.5261128 40.9482975,0.203439938 Z" id="frame"></path>
                            </g>
                        </g>
                        <circle id="Oval" stroke="#FF5656" stroke-width="15" fill="#FFFFFF" cx="273" cy="267" r="35"></circle>
                        <circle id="Oval-Copy" stroke="#FF5656" stroke-width="15" cx="133" cy="267" r="35"></circle>
                        <path d="M38.7170729,188.504962 C69.0329653,166.550669 91.2488854,152.577803 105.364833,146.586365 C150.921501,127.250083 187.912995,126.273466 202.55935,126.273466 C215.890852,126.273466 256.896086,130.566015 295.837166,146.586365 C311.653733,153.093296 335.17522,167.066162 366.401627,188.504962" id="Path-2" stroke="#FFFFFF" stroke-width="8"></path>
                        <path d="M38.7170729,138.504962 C69.0329653,116.550669 91.2488854,102.577803 105.364833,96.5863653 C150.921501,77.2500835 187.912995,76.2734662 202.55935,76.2734662 C215.890852,76.2734662 256.896086,80.5660154 295.837166,96.5863653 C311.653733,103.093296 335.17522,117.066162 366.401627,138.504962" id="Path-2-Copy" stroke="#FFFFFF" stroke-width="8"></path>
                        <path d="M38.7170729,98.5049623 C69.0329653,76.5506687 91.2488854,62.5778031 105.364833,56.5863653 C150.921501,37.2500835 187.912995,36.2734662 202.55935,36.2734662 C215.890852,36.2734662 256.896086,40.5660154 295.837166,56.5863653 C311.653733,63.0932964 335.17522,77.0661621 366.401627,98.5049623" id="Path-2-Copy-2" stroke="#FFFFFF" stroke-width="8"></path>
                    </g>
                </g>
            </g>
        </g>
    </g>
</svg>