<?xml version="1.0" encoding="UTF-8"?>
<svg width="48px" height="44px" viewBox="0 0 48 44" version="1.1" xmlns="http://www.w3.org/2000/svg" xmlns:xlink="http://www.w3.org/1999/xlink">
    <!-- Generator: Sketch 49.2 (51160) - http://www.bohemiancoding.com/sketch -->
    <title>noun_817_cc</title>
    <desc>Created with Sketch.</desc>
    <defs></defs>
    <g id="Page-1" stroke="none" stroke-width="1" fill="none" fill-rule="evenodd">
        <g id="all_questions_mockup" transform="translate(-580.000000, -29.000000)" fill="#FF8B8B" fill-rule="nonzero">
            <g id="HEADER-+-MENU">
                <g id="logo" transform="translate(580.000000, 29.000000)">
                    <g id="noun_817_cc">
                        <path d="M48,17.6266062 C48,14.8553005 46.5315064,12.2851002 44.1243933,10.7708333 C42.8466131,5.50311791 37.916928,1.74811036 32.1434646,1.74811036 C30.754349,1.74811036 29.3982217,1.96532502 28.0993084,2.39559713 C26.4885529,0.862103175 24.3200893,0 22.0052403,0 C19.3311284,0 16.7946394,1.20299509 15.1720287,3.19326342 C14.8122503,3.15013228 14.4504102,3.12830688 14.089601,3.12830688 C10.1701817,3.12830688 6.81723294,5.58834089 5.78016408,9.09703326 C2.33495125,10.2340325 0,13.3103741 0,16.8528439 C0,17.9030612 0.214423779,18.9506803 0.625230875,19.9224301 C0.214939221,20.8946995 2.28902131e-16,21.9423186 2.28902131e-16,22.9914966 C2.28902131e-16,26.0382181 1.73446158,28.789777 4.54310382,30.2281746 C6.1554057,31.7585506 8.36510459,32.6315665 10.6464499,32.6315665 C12.1036038,32.6315665 13.5009665,32.2943122 14.7545209,31.6452664 C16.3812551,33.4411848 18.7832138,34.5142668 21.3088785,34.5142668 C22.8835531,34.5142668 24.385035,34.12089 25.7117821,33.3684335 C27.1807912,34.4534675 28.9348396,35.1523998 30.7837292,35.3810469 C33.9006056,38.5342971 36.2927709,42.6078515 36.3164813,42.650463 L37.10253,44 L41.0497831,41.1471088 L38.8524548,34.7974773 C40.0900305,34.219624 41.1142133,33.2743764 41.7626391,32.0895692 C44.458915,30.6470144 46.1758516,27.885582 46.1758516,24.9209656 C46.1758516,24.2563303 46.0928654,23.6005291 45.9289549,22.9623961 C47.2546712,21.4834656 48,19.5846561 48,17.6266062 Z M40.1183798,29.7215136 L39.6266483,29.948082 L39.4091319,30.4474679 C38.9529659,31.493528 37.9653795,32.2579365 36.7690391,32.4938587 L35.1629226,32.8092876 L37.2576779,38.8627173 C36.1128817,37.1951531 34.3985224,34.917517 32.4047936,32.9797336 L32.0357373,32.6216931 L31.5254499,32.5837585 C30.3064301,32.4928193 29.1374082,32.1233466 28.1106482,31.5299036 L32.1919162,28.2779195 C33.2547571,27.4303666 34.6871698,27.0614135 35.1696233,27.1918462 L37.0401615,27.6933107 L37.7427086,25.0243764 L35.871655,24.5234316 C34.2273957,24.0817271 31.8728577,25.0134637 30.4935355,26.1120087 L25.9102272,29.7625661 L25.8994029,29.7521731 L24.960268,30.456302 C23.915983,31.2409769 22.7170654,31.6561791 21.3717624,31.6561791 C19.4507109,31.6561791 17.675014,30.7545824 16.6441304,29.2912415 L16.6441304,27.7717782 L16.6441304,27.1362434 L16.6441304,25.1516912 C16.6441304,24.0437925 17.1554486,22.9857804 17.4569821,22.8023432 L18.9873287,21.8493008 L17.5028564,19.4043367 L15.9333362,20.3563398 C15.1988317,20.8037604 14.6308148,21.5957105 14.2519651,22.4832766 C13.9334221,22.1870748 13.5896224,21.9230915 13.2303595,21.7032785 L8.63931962,18.8976757 L7.16876423,21.3416005 L11.694343,24.1472033 C12.7937803,24.8191138 13.5514797,26.2798564 13.5514797,27.1362434 L13.5514797,27.7717782 L13.5514797,28.9752929 C12.5205962,29.4959845 11.6711481,29.7729592 10.5815042,29.7729592 C8.96198617,29.7729592 7.43524763,29.1379441 6.33838753,28.0326436 L6.18117778,27.8580404 L5.96778489,27.752551 C4.02972381,26.8254913 2.82977535,25.0004724 2.82977535,22.9904573 C2.82977535,22.1543367 3.03646751,21.3519936 3.44005842,20.6047336 L3.81014561,19.9208711 L3.4410893,19.2375283 C3.03801383,18.4918273 2.83338345,17.6894841 2.83338345,16.8523243 C2.83338345,14.3678666 4.65804733,12.2263794 7.26979082,11.6448885 L8.19758601,11.4380669 L8.36046562,10.4943783 C8.81147717,7.88156652 11.2201366,5.98535525 14.0885701,5.98535525 C14.5560758,5.98535525 15.0261587,6.03835979 15.4854173,6.14332955 L16.457025,6.36470144 L16.9930845,5.51818783 C18.0316997,3.87712585 19.9522357,2.85756803 22.0047249,2.85756803 C23.3345647,2.85756803 24.5850264,3.27173091 25.5973541,4.01535336 L24.5432756,5.00684996 L24.5252352,4.98710317 L23.7866071,5.68135865 C22.7923199,6.44836546 21.574331,6.85109599 21.109918,6.78042328 L19.1002105,6.47538738 L18.6790945,9.30177627 L20.6872557,9.60629252 C20.7542631,9.61668556 20.8259095,9.61564626 20.8944633,9.62136243 C20.5702504,10.6424792 20.4537606,11.7311508 20.6176711,12.6940665 L21.0800223,15.4097695 L23.8742322,14.9254535 L23.4118809,12.2102702 C23.2376616,11.1870748 23.7505262,9.62344104 24.4896697,8.92970522 L25.6514755,7.83635676 C25.8112624,7.70904195 25.9628023,7.58016818 26.1014561,7.4502551 L28.3261028,5.35761527 C29.5348138,4.86082766 30.8177484,4.60567838 32.1414029,4.60567838 C36.7850178,4.60567838 40.7095915,7.69345238 41.4739917,11.9478458 L41.5976977,12.6379441 L42.2141661,12.9611678 C44.0321292,13.9142101 45.162493,15.7018141 45.162493,17.6266062 C45.162493,18.6347317 44.8578669,19.5940098 44.2980972,20.4285714 L43.8579099,19.9847884 L43.8584253,19.9847884 L42.0219063,18.1332672 C41.223487,17.3288454 40.4070272,15.5485166 40.2730123,14.3242158 L39.9699326,11.542517 L37.2489154,11.8439153 L37.5519952,14.6256141 C37.6385894,15.4232804 37.9066191,16.3264361 38.2730982,17.1963341 C38.0911473,17.173989 37.9097118,17.1495654 37.734977,17.1412509 L31.578025,16.8466081 L31.4476182,19.6038832 L37.6086938,19.8980064 C38.8694644,19.9582861 40.7147459,20.7159392 41.4812079,21.4876228 L42.9419698,22.9608371 L42.9950603,23.0933485 C43.2249474,23.6779573 43.3419527,24.2937453 43.3419527,24.9209656 C43.3409218,26.967876 42.1059233,28.8074452 40.1183798,29.7215136 Z" id="Shape"></path>
                    </g>
                </g>
            </g>
        </g>
    </g>
</svg>