<?xml version="1.0" encoding="UTF-8"?>
<svg width="220px" height="33px" viewBox="0 0 220 33" version="1.1" xmlns="http://www.w3.org/2000/svg" xmlns:xlink="http://www.w3.org/1999/xlink">
    <!-- Generator: Sketch 49.2 (51160) - http://www.bohemiancoding.com/sketch -->
    <title>UniKnowledge</title>
    <desc>Created with Sketch.</desc>
    <defs></defs>
    <g id="Page-1" stroke="none" stroke-width="1" fill="none" fill-rule="evenodd">
        <g id="all_questions_mockup" transform="translate(-641.000000, -40.000000)" fill="#4A90E2">
            <g id="HEADER-+-MENU">
                <g id="logo" transform="translate(580.000000, 29.000000)">
                    <path d="M80.7573606,27.2018072 C80.7573606,28.6154689 80.5240937,29.9021026 80.0575529,31.061747 C79.5910121,32.2213913 78.9237603,33.2153573 78.0557775,34.0436747 C77.1877946,34.8719921 76.1408061,35.51807 74.9147803,35.9819277 C73.6887545,36.4457855 72.3271269,36.6777108 70.8298565,36.6777108 C69.3108865,36.6777108 67.9438341,36.4457855 66.7286581,35.9819277 C65.5134821,35.51807 64.482768,34.8719921 63.6364847,34.0436747 C62.7902014,33.2153573 62.1392241,32.2213913 61.6835331,31.061747 C61.2278421,29.9021026 61,28.6154689 61,27.2018072 L61,12.5903614 L66.5333629,12.5903614 L66.5333629,26.7379518 C66.5333629,27.3785173 66.6147351,27.9859409 66.7774819,28.560241 C66.9402287,29.134541 67.18977,29.6480901 67.5261133,30.1009036 C67.8624567,30.5537171 68.3072912,30.9126493 68.8606303,31.1777108 C69.4139693,31.4427724 70.0812211,31.5753012 70.8624057,31.5753012 C71.6435902,31.5753012 72.310842,31.4427724 72.8641811,31.1777108 C73.4175202,30.9126493 73.8677795,30.5537171 74.2149726,30.1009036 C74.5621658,29.6480901 74.8117071,29.134541 74.9636041,28.560241 C75.1155011,27.9859409 75.1914484,27.3785173 75.1914484,26.7379518 L75.1914484,12.5903614 L80.7573606,12.5903614 L80.7573606,27.2018072 Z M95.5997929,36.0481928 L95.5997929,27.0361446 C95.5997929,26.5722868 95.5618192,26.1305242 95.4858707,25.7108434 C95.4099222,25.2911626 95.2851515,24.9211863 95.111555,24.6009036 C94.9379584,24.2806209 94.6938419,24.0266074 94.3791981,23.8388554 C94.0645543,23.6511035 93.6685431,23.5572289 93.1911525,23.5572289 C92.713762,23.5572289 92.2960515,23.6511035 91.9380086,23.8388554 C91.5799657,24.0266074 91.281601,24.2861429 91.0429058,24.6174699 C90.8042105,24.9487968 90.6251917,25.3298171 90.5058441,25.7605422 C90.3864964,26.1912672 90.3268235,26.6385519 90.3268235,27.1024096 L90.3268235,36.0481928 L84.9562065,36.0481928 L84.9562065,19.5481928 L90.1315283,19.5481928 L90.1315283,21.8343373 L90.1966267,21.8343373 C90.3919229,21.4809219 90.646889,21.1330338 90.9615328,20.7906627 C91.2761765,20.4482915 91.6450637,20.1556237 92.0682054,19.9126506 C92.491347,19.6696775 92.952456,19.4708843 93.4515461,19.3162651 C93.9506362,19.1616458 94.4822677,19.0843373 95.0464566,19.0843373 C96.1314351,19.0843373 97.0536531,19.2831305 97.813138,19.6807229 C98.572623,20.0783152 99.1856267,20.5918643 99.6521675,21.2213855 C100.118708,21.8509068 100.455047,22.5742931 100.661192,23.3915663 C100.867338,24.2088394 100.97041,25.0261003 100.97041,25.8433735 L100.97041,36.0481928 L95.5997929,36.0481928 Z M110.800266,14.2801205 C110.800266,14.6998013 110.718894,15.0918656 110.556147,15.4563253 C110.393401,15.820785 110.176408,16.1355408 109.905163,16.4006024 C109.633919,16.665664 109.30843,16.8755012 108.928688,17.0301205 C108.548945,17.1847397 108.152934,17.2620482 107.740642,17.2620482 C106.872659,17.2620482 106.145735,16.9693804 105.559846,16.3840361 C104.973958,15.7986919 104.681018,15.0973936 104.681018,14.2801205 C104.681018,13.8825281 104.756965,13.5015078 104.908862,13.1370482 C105.060759,12.7725885 105.277752,12.4578327 105.559846,12.1927711 C105.841941,11.9277095 106.167429,11.7123502 106.536322,11.5466867 C106.905215,11.3810233 107.306651,11.2981928 107.740642,11.2981928 C108.152934,11.2981928 108.548945,11.3755012 108.928688,11.5301205 C109.30843,11.6847397 109.633919,11.894577 109.905163,12.1596386 C110.176408,12.4247001 110.393401,12.739456 110.556147,13.1039157 C110.718894,13.4683753 110.800266,13.8604397 110.800266,14.2801205 Z M105.071608,36.0481928 L105.071608,19.5481928 L110.409676,19.5481928 L110.409676,36.0481928 L105.071608,36.0481928 Z M117.961089,23.126506 L117.993638,23.126506 L128.962716,12.5903614 L132.315283,12.5903614 L120.695221,23.2259036 L132.966267,36.0481928 L129.516053,36.0481928 L117.993638,23.5572289 L117.961089,23.5572289 L117.961089,36.0481928 L115.617547,36.0481928 L115.617547,12.5903614 L117.961089,12.5903614 L117.961089,23.126506 Z M137.913745,20.5421687 C137.957144,20.9618495 137.989693,21.4257003 138.011392,21.9337349 C138.033092,22.4417696 138.043941,22.8614441 138.043941,23.1927711 L138.10904,23.1927711 C138.543031,22.2871441 139.248257,21.5527137 140.224737,20.9894578 C141.201218,20.426202 142.231932,20.1445783 143.316911,20.1445783 C145.248173,20.1445783 146.696597,20.7299138 147.662228,21.9006024 C148.627859,23.071291 149.110667,24.6174603 149.110667,26.5391566 L149.110667,36.0481928 L146.897322,36.0481928 L146.897322,27.4668675 C146.897322,26.6495943 146.832224,25.9096419 146.702027,25.246988 C146.57183,24.584334 146.349412,24.0155646 146.034768,23.5406627 C145.720125,23.0657607 145.296989,22.6957845 144.76535,22.4307229 C144.23371,22.1656613 143.566459,22.0331325 142.763574,22.0331325 C142.177686,22.0331325 141.608081,22.1546173 141.054742,22.3975904 C140.501403,22.6405635 140.007745,23.0105397 139.573754,23.5075301 C139.139762,24.0045206 138.792574,24.6340323 138.532179,25.3960843 C138.271784,26.1581363 138.141589,27.0582277 138.141589,28.0963855 L138.141589,36.0481928 L135.928244,36.0481928 L135.928244,23.9548193 C135.928244,23.5351385 135.917394,22.9939792 135.895695,22.3313253 C135.873995,21.6686714 135.841446,21.0722918 135.798047,20.5421687 L137.913745,20.5421687 Z M169.9747,28.2951807 C169.9747,29.4658693 169.773982,30.5481878 169.37254,31.5421687 C168.971098,32.5361495 168.412343,33.3975867 167.696257,34.126506 C166.980171,34.8554253 166.123051,35.4241947 165.124871,35.8328313 C164.12669,36.2414679 163.030878,36.4457831 161.837402,36.4457831 C160.665625,36.4457831 159.580663,36.2414679 158.582483,35.8328313 C157.584302,35.4241947 156.727182,34.8554253 156.011096,34.126506 C155.29501,33.3975867 154.736255,32.5361495 154.334813,31.5421687 C153.933371,30.5481878 153.732653,29.4658693 153.732653,28.2951807 C153.732653,27.1244921 153.933371,26.0421736 154.334813,25.0481928 C154.736255,24.0542119 155.29501,23.1927747 156.011096,22.4638554 C156.727182,21.7349361 157.584302,21.1661667 158.582483,20.7575301 C159.580663,20.3488935 160.665625,20.1445783 161.837402,20.1445783 C163.030878,20.1445783 164.12669,20.3488935 165.124871,20.7575301 C166.123051,21.1661667 166.980171,21.7349361 167.696257,22.4638554 C168.412343,23.1927747 168.971098,24.0542119 169.37254,25.0481928 C169.773982,26.0421736 169.9747,27.1244921 169.9747,28.2951807 Z M167.631158,28.2951807 C167.631158,27.4337306 167.495538,26.6219918 167.224294,25.8599398 C166.953049,25.0978878 166.567887,24.4352438 166.068797,23.871988 C165.569707,23.3087321 164.962128,22.8614474 164.246042,22.5301205 C163.529956,22.1987935 162.727084,22.0331325 161.837402,22.0331325 C160.94772,22.0331325 160.150272,22.1987935 159.445036,22.5301205 C158.7398,22.8614474 158.137646,23.3087321 157.638556,23.871988 C157.139466,24.4352438 156.754304,25.0978878 156.48306,25.8599398 C156.211815,26.6219918 156.076195,27.4337306 156.076195,28.2951807 C156.076195,29.1566308 156.211815,29.9683697 156.48306,30.7304217 C156.754304,31.4924737 157.139466,32.1551177 157.638556,32.7183735 C158.137646,33.2816293 158.7398,33.723392 159.445036,34.0436747 C160.150272,34.3639574 160.94772,34.5240964 161.837402,34.5240964 C162.727084,34.5240964 163.529956,34.3639574 164.246042,34.0436747 C164.962128,33.723392 165.569707,33.2816293 166.068797,32.7183735 C166.567887,32.1551177 166.953049,31.4924737 167.224294,30.7304217 C167.495538,29.9683697 167.631158,29.1566308 167.631158,28.2951807 Z M175.019825,20.5421687 L178.697884,33.1325301 L178.762983,33.1325301 L182.864181,20.5421687 L185.012428,20.5421687 L189.178725,33.1325301 L189.243823,33.1325301 L192.889333,20.5421687 L195.232875,20.5421687 L190.415594,36.0481928 L188.006954,36.0481928 L183.938304,23.4909639 L183.873206,23.4909639 L179.869655,36.0481928 L177.461015,36.0481928 L172.643734,20.5421687 L175.019825,20.5421687 Z M201.287025,36.0481928 L199.07368,36.0481928 L199.07368,11 L201.287025,11 L201.287025,36.0481928 Z M218.83104,27.1024096 C218.765941,25.644571 218.304832,24.4352458 217.447699,23.4743976 C216.590566,22.5135494 215.369984,22.0331325 213.785915,22.0331325 C213.04813,22.0331325 212.364603,22.1711834 211.735316,22.4472892 C211.106028,22.723395 210.552698,23.0988932 210.075307,23.5737952 C209.597916,24.0486972 209.21818,24.5898564 208.936085,25.1972892 C208.653991,25.8047219 208.491246,26.4397557 208.447847,27.1024096 L218.83104,27.1024096 Z M221.076934,27.8313253 L221.076934,28.3283133 C221.076934,28.505021 221.066085,28.6927701 221.044385,28.8915663 L208.415298,28.8915663 C208.436998,29.6646625 208.588892,30.3935709 208.870987,31.0783133 C209.153081,31.7630556 209.543668,32.3594352 210.042758,32.8674699 C210.541848,33.3755045 211.127728,33.778613 211.800414,34.0768072 C212.473101,34.3750015 213.200026,34.5240964 213.98121,34.5240964 C215.131287,34.5240964 216.124028,34.2535168 216.959461,33.7123494 C217.794895,33.171182 218.429598,32.5471923 218.863589,31.8403614 L220.523598,33.1656627 C219.612216,34.3363512 218.608626,35.1757003 217.512798,35.6837349 C216.416969,36.1917696 215.239785,36.4457831 213.98121,36.4457831 C212.852833,36.4457831 211.805844,36.2414679 210.840213,35.8328313 C209.874582,35.4241947 209.044586,34.8554253 208.3502,34.126506 C207.655813,33.3975867 207.107908,32.5361495 206.706465,31.5421687 C206.305023,30.5481878 206.104305,29.4658693 206.104305,28.2951807 C206.104305,27.1244921 206.299599,26.0421736 206.690191,25.0481928 C207.080783,24.0542119 207.623264,23.1927747 208.317651,22.4638554 C209.012037,21.7349361 209.825759,21.1661667 210.75884,20.7575301 C211.691922,20.3488935 212.700937,20.1445783 213.785915,20.1445783 C214.979391,20.1445783 216.031805,20.3488935 216.943187,20.7575301 C217.854569,21.1661667 218.614042,21.71837 219.22163,22.4141566 C219.829218,23.1099432 220.290327,23.9216821 220.604971,24.8493976 C220.919615,25.7771131 221.076934,26.771079 221.076934,27.8313253 Z M238.360556,33.4307229 C237.709569,34.4247038 236.863299,35.1757003 235.821719,35.6837349 C234.78014,36.1917696 233.706027,36.4457831 232.599349,36.4457831 C231.405873,36.4457831 230.326335,36.2359459 229.360704,35.8162651 C228.395073,35.3965842 227.570502,34.8222928 226.886966,34.0933735 C226.203429,33.3644542 225.671798,32.503017 225.292055,31.5090361 C224.912313,30.5150553 224.722444,29.4437808 224.722444,28.2951807 C224.722444,27.1465806 224.912313,26.0753062 225.292055,25.0813253 C225.671798,24.0873444 226.203429,23.2259073 226.886966,22.496988 C227.570502,21.7680686 228.395073,21.1937772 229.360704,20.7740964 C230.326335,20.3544156 231.405873,20.1445783 232.599349,20.1445783 C233.706027,20.1445783 234.78014,20.4041139 235.821719,20.9231928 C236.863299,21.4422717 237.709569,22.2098343 238.360556,23.2259036 L238.425655,23.2259036 L238.425655,11 L240.639,11 L240.639,36.0481928 L238.425655,36.0481928 L238.425655,33.4307229 L238.360556,33.4307229 Z M227.065986,28.2951807 C227.065986,29.1566308 227.196182,29.9683697 227.456576,30.7304217 C227.716971,31.4924737 228.091283,32.1551177 228.579524,32.7183735 C229.067764,33.2816293 229.669918,33.723392 230.386004,34.0436747 C231.10209,34.3639574 231.915811,34.5240964 232.827193,34.5240964 C233.673477,34.5240964 234.454649,34.3639574 235.170735,34.0436747 C235.886821,33.723392 236.50525,33.2871514 237.026039,32.7349398 C237.546829,32.1827282 237.95369,31.5256062 238.246634,30.7635542 C238.539578,30.0015022 238.686048,29.1787193 238.686048,28.2951807 C238.686048,27.4116422 238.539578,26.5888592 238.246634,25.8268072 C237.95369,25.0647552 237.546829,24.4021112 237.026039,23.8388554 C236.50525,23.2755996 235.886821,22.8338369 235.170735,22.5135542 C234.454649,22.1932715 233.673477,22.0331325 232.827193,22.0331325 C231.915811,22.0331325 231.10209,22.1987935 230.386004,22.5301205 C229.669918,22.8614474 229.067764,23.3087321 228.579524,23.871988 C228.091283,24.4352438 227.716971,25.0978878 227.456576,25.8599398 C227.196182,26.6219918 227.065986,27.4337306 227.065986,28.2951807 Z M247.376683,39.1626506 C247.984271,39.9578353 248.814267,40.6315233 249.866696,41.1837349 C250.919125,41.7359465 252.031212,42.0120482 253.202989,42.0120482 C254.287967,42.0120482 255.210185,41.8519092 255.96967,41.5316265 C256.729155,41.2113438 257.342159,40.7751032 257.8087,40.2228916 C258.27524,39.67068 258.617003,39.0246021 258.833999,38.2846386 C259.050995,37.544675 259.159491,36.7550243 259.159491,35.9156627 L259.159491,33 L259.094393,33 C258.508504,33.9718924 257.678508,34.7228889 256.604379,35.253012 C255.530251,35.7831352 254.439864,36.0481928 253.333185,36.0481928 C252.139709,36.0481928 251.060172,35.8493996 250.094541,35.4518072 C249.12891,35.0542149 248.304338,34.5075336 247.620802,33.811747 C246.937265,33.1159604 246.405634,32.2821334 246.025891,31.310241 C245.646149,30.3383486 245.456281,29.2891623 245.456281,28.1626506 C245.456281,27.0582274 245.646149,26.0200852 246.025891,25.0481928 C246.405634,24.0763004 246.937265,23.2259073 247.620802,22.496988 C248.304338,21.7680686 249.12891,21.1937772 250.094541,20.7740964 C251.060172,20.3544156 252.139709,20.1445783 253.333185,20.1445783 C254.439864,20.1445783 255.524826,20.4096359 256.588105,20.939759 C257.651384,21.4698822 258.486805,22.2319227 259.094393,23.2259036 L259.159491,23.2259036 L259.159491,20.5421687 L261.372836,20.5421687 L261.372836,35.9156627 C261.372836,36.7550243 261.258915,37.6495936 261.03107,38.5993976 C260.803224,39.5492015 260.380089,40.4216828 259.761651,41.2168675 C259.143213,42.0120522 258.302368,42.6746961 257.239089,43.2048193 C256.17581,43.7349424 254.797908,44 253.105341,44 C251.694869,44 250.349516,43.7238983 249.069241,43.1716867 C247.788966,42.6194752 246.693154,41.8574346 245.781772,40.8855422 L247.376683,39.1626506 Z M247.799822,28.0963855 C247.799822,28.9136587 247.930018,29.6867433 248.190413,30.4156627 C248.450808,31.144582 248.82512,31.7851378 249.31336,32.3373494 C249.8016,32.889561 250.403754,33.3258016 251.11984,33.6460843 C251.835926,33.9663671 252.649648,34.126506 253.56103,34.126506 C254.407313,34.126506 255.188486,33.9829332 255.904572,33.6957831 C256.620658,33.4086331 257.239086,33.0000027 257.759876,32.4698795 C258.280665,31.9397564 258.687526,31.3047226 258.98047,30.564759 C259.273415,29.8247955 259.419885,29.0020126 259.419885,28.0963855 C259.419885,27.2791124 259.273415,26.5060277 258.98047,25.7771084 C258.687526,25.0481891 258.280665,24.4076333 257.759876,23.8554217 C257.239086,23.3032101 256.620658,22.8614474 255.904572,22.5301205 C255.188486,22.1987935 254.407313,22.0331325 253.56103,22.0331325 C252.649648,22.0331325 251.835926,22.1987935 251.11984,22.5301205 C250.403754,22.8614474 249.8016,23.3032101 249.31336,23.8554217 C248.82512,24.4076333 248.450808,25.0481891 248.190413,25.7771084 C247.930018,26.5060277 247.799822,27.2791124 247.799822,28.0963855 Z M278.754106,27.1024096 C278.689007,25.644571 278.227898,24.4352458 277.370765,23.4743976 C276.513632,22.5135494 275.293049,22.0331325 273.708981,22.0331325 C272.971195,22.0331325 272.287669,22.1711834 271.658381,22.4472892 C271.029094,22.723395 270.475763,23.0988932 269.998373,23.5737952 C269.520982,24.0486972 269.141245,24.5898564 268.859151,25.1972892 C268.577056,25.8047219 268.414312,26.4397557 268.370913,27.1024096 L278.754106,27.1024096 Z M281,27.8313253 L281,28.3283133 C281,28.505021 280.98915,28.6927701 280.967451,28.8915663 L268.338364,28.8915663 C268.360063,29.6646625 268.511958,30.3935709 268.794052,31.0783133 C269.076147,31.7630556 269.466733,32.3594352 269.965823,32.8674699 C270.464913,33.3755045 271.050793,33.778613 271.72348,34.0768072 C272.396167,34.3750015 273.123091,34.5240964 273.904276,34.5240964 C275.054353,34.5240964 276.047094,34.2535168 276.882527,33.7123494 C277.71796,33.171182 278.352663,32.5471923 278.786655,31.8403614 L280.446664,33.1656627 C279.535282,34.3363512 278.531692,35.1757003 277.435863,35.6837349 C276.340035,36.1917696 275.162851,36.4457831 273.904276,36.4457831 C272.775898,36.4457831 271.728909,36.2414679 270.763279,35.8328313 C269.797648,35.4241947 268.967652,34.8554253 268.273265,34.126506 C267.578879,33.3975867 267.030973,32.5361495 266.629531,31.5421687 C266.228089,30.5481878 266.027371,29.4658693 266.027371,28.2951807 C266.027371,27.1244921 266.222664,26.0421736 266.613256,25.0481928 C267.003849,24.0542119 267.54633,23.1927747 268.240716,22.4638554 C268.935102,21.7349361 269.748824,21.1661667 270.681906,20.7575301 C271.614987,20.3488935 272.624002,20.1445783 273.708981,20.1445783 C274.902457,20.1445783 275.95487,20.3488935 276.866252,20.7575301 C277.777634,21.1661667 278.537108,21.71837 279.144696,22.4141566 C279.752284,23.1099432 280.213393,23.9216821 280.528037,24.8493976 C280.84268,25.7771131 281,26.771079 281,27.8313253 Z" id="UniKnowledge"></path>
                </g>
            </g>
        </g>
    </g>
</svg>